<svg width="24" height="24" viewBox="0 0 24 24" fill="none" xmlns="http://www.w3.org/2000/svg">
<path d="M12.0016 6.46198C8.93691 6.46198 6.4649 8.93455 6.4649 12C6.4649 15.0654 8.93691 17.5379 12.0016 17.5379C15.0663 17.5379 17.5384 15.0654 17.5384 12C17.5384 8.93455 15.0663 6.46198 12.0016 6.46198ZM12.0016 15.6004C10.0211 15.6004 8.40203 13.9857 8.40203 12C8.40203 10.0142 10.0163 8.39955 12.0016 8.39955C13.9869 8.39955 15.6012 10.0142 15.6012 12C15.6012 13.9857 13.9821 15.6004 12.0016 15.6004ZM19.0563 6.23545C19.0563 6.95361 18.478 7.52716 17.7648 7.52716C17.0469 7.52716 16.4734 6.94879 16.4734 6.23545C16.4734 5.52212 17.0517 4.94374 17.7648 4.94374C18.478 4.94374 19.0563 5.52212 19.0563 6.23545ZM22.7233 7.54644C22.6414 5.81613 22.2463 4.28343 20.9789 3.02064C19.7164 1.75784 18.1841 1.36262 16.4541 1.27586C14.6712 1.17465 9.32723 1.17465 7.54429 1.27586C5.81919 1.3578 4.28683 1.75302 3.0195 3.01582C1.75217 4.27861 1.36185 5.81131 1.27511 7.54162C1.17392 9.32495 1.17392 14.6701 1.27511 16.4535C1.35703 18.1838 1.75217 19.7165 3.0195 20.9793C4.28683 22.2421 5.81437 22.6373 7.54429 22.724C9.32723 22.8253 14.6712 22.8253 16.4541 22.724C18.1841 22.6421 19.7164 22.2469 20.9789 20.9793C22.2415 19.7165 22.6366 18.1838 22.7233 16.4535C22.8245 14.6701 22.8245 9.32977 22.7233 7.54644ZM20.42 18.3669C20.0441 19.3116 19.3165 20.0394 18.3672 20.4202C16.9457 20.9841 13.5725 20.854 12.0016 20.854C10.4307 20.854 7.05278 20.9793 5.63607 20.4202C4.6916 20.0442 3.96397 19.3164 3.58329 18.3669C3.0195 16.9451 3.1496 13.5712 3.1496 12C3.1496 10.4287 3.02432 7.05 3.58329 5.63298C3.95915 4.68829 4.68678 3.9605 5.63607 3.57973C7.0576 3.01582 10.4307 3.14595 12.0016 3.14595C13.5725 3.14595 16.9505 3.02064 18.3672 3.57973C19.3117 3.95568 20.0393 4.68347 20.42 5.63298C20.9838 7.05482 20.8537 10.4287 20.8537 12C20.8537 13.5712 20.9838 16.9499 20.42 18.3669Z" fill="#111111"/>
</svg>
